Normalized EMG Linear Envelopes
nRows=233
nColumns=4

endheader
time	 med_gas_r	  soleus_r	 tib_ant_r	
2.86089	  0.007726	  0.016785	  0.007752	
2.89415	  0.008100	  0.017540	  0.007814	
2.92742	  0.008394	  0.018101	  0.007860	
2.96069	  0.008546	  0.018331	  0.007879	
2.99395	  0.008515	  0.018228	  0.007884	
3.02722	  0.008319	  0.017902	  0.007898	
3.06048	  0.008036	  0.017512	  0.007942	
3.09375	  0.007773	  0.017185	  0.008019	
3.12702	  0.007625	  0.016976	  0.008119	
3.16028	  0.007638	  0.016878	  0.008234	
3.19355	  0.007808	  0.016864	  0.008363	
3.22681	  0.008078	  0.016920	  0.008502	
3.26008	  0.008361	  0.017038	  0.008635	
3.29335	  0.008563	  0.017192	  0.008732	
3.32661	  0.008621	  0.017340	  0.008769	
3.35988	  0.008527	  0.017450	  0.008740	
3.39315	  0.008328	  0.017541	  0.008659	
3.42641	  0.008103	  0.017689	  0.008558	
3.45968	  0.007932	  0.017968	  0.008460	
3.49294	  0.007876	  0.018390	  0.008382	
3.52621	  0.007956	  0.018870	  0.008323	
3.55948	  0.008159	  0.019262	  0.008277	
3.59274	  0.008442	  0.019435	  0.008232	
3.62601	  0.008743	  0.019327	  0.008179	
3.65927	  0.008999	  0.018953	  0.008119	
3.69254	  0.009153	  0.018383	  0.008067	
3.72581	  0.009176	  0.017719	  0.008045	
3.75907	  0.009075	  0.017075	  0.008067	
3.79234	  0.008893	  0.016562	  0.008132	
3.8256	  0.008686	  0.016267	  0.008226	
3.85887	  0.008510	  0.016249	  0.008341	
3.89214	  0.008404	  0.016533	  0.008491	
3.9254	  0.008387	  0.017111	  0.008705	
3.95867	  0.008464	  0.017941	  0.008999	
3.99194	  0.008616	  0.018947	  0.009342	
4.0252	  0.008806	  0.020022	  0.009646	
4.05847	  0.008987	  0.021030	  0.009808	
4.09173	  0.009115	  0.021817	  0.009771	
4.125	  0.009165	  0.022234	  0.009566	
4.15827	  0.009145	  0.022183	  0.009291	
4.19153	  0.009095	  0.021667	  0.009056	
4.2248	  0.009069	  0.020825	  0.008923	
4.25806	  0.009114	  0.019899	  0.008895	
4.29133	  0.009242	  0.019145	  0.008939	
4.3246	  0.009424	  0.018733	  0.009017	
4.35786	  0.009608	  0.018688	  0.009104	
4.39113	  0.009735	  0.018911	  0.009184	
4.4244	  0.009763	  0.019254	  0.009242	
4.45766	  0.009676	  0.019614	  0.009259	
4.49093	  0.009485	  0.019980	  0.009216	
4.52419	  0.009227	  0.020416	  0.009108	
4.55746	  0.008951	  0.020992	  0.008946	
4.59073	  0.008706	  0.021732	  0.008749	
4.62399	  0.008521	  0.022590	  0.008530	
4.65726	  0.008403	  0.023457	  0.008286	
4.69052	  0.008352	  0.024175	  0.007994	
4.72379	  0.008371	  0.024567	  0.007617	
4.75706	  0.008462	  0.024479	  0.007110	
4.79032	  0.008612	  0.023844	  0.006430	
4.82359	  0.008784	  0.022720	  0.005540	
4.85685	  0.008932	  0.021282	  0.004422	
4.89012	  0.009019	  0.019762	  0.003098	
4.92339	  0.009034	  0.018383	  0.001674	
4.95665	  0.008993	  0.017324	  0.000386	
4.98992	  0.008928	  0.016732	 -0.000346	
5.02319	  0.008886	  0.016759	  0.000122	
5.05645	  0.008923	  0.017622	  0.002702	
5.08972	  0.009117	  0.019618	  0.008556	
5.12298	  0.009550	  0.023084	  0.018988	
5.15625	  0.010294	  0.028257	  0.035168	
5.18952	  0.011377	  0.035107	  0.057747	
5.22278	  0.012767	  0.043288	  0.086528	
5.25605	  0.014386	  0.052283	  0.120353	
5.28931	  0.016158	  0.061664	  0.157240	
5.32258	  0.018047	  0.071268	  0.194704	
5.35585	  0.020085	  0.081179	  0.230154	
5.38911	  0.022352	  0.091603	  0.261373	
5.42238	  0.024936	  0.102753	  0.287041	
5.45565	  0.027885	  0.114730	  0.307160	
5.48891	  0.031155	  0.127385	  0.323107	
5.52218	  0.034599	  0.140256	  0.337224	
5.55544	  0.037988	  0.152747	  0.352062	
5.58871	  0.041100	  0.164424	  0.369555	
5.62198	  0.043784	  0.175086	  0.390369	
5.65524	  0.046003	  0.184521	  0.413535	
5.68851	  0.047799	  0.192280	  0.436556	
5.72177	  0.049259	  0.197850	  0.456164	
5.75504	  0.050474	  0.201169	  0.469708	
5.78831	  0.051535	  0.202972	  0.476580	
5.82157	  0.052543	  0.204569	  0.478688	
5.85484	  0.053614	  0.207240	  0.479485	
5.8881	  0.054872	  0.211775	  0.482058	
5.92137	  0.056436	  0.218468	  0.487527	
5.95464	  0.058380	  0.227394	  0.494721	
5.9879	  0.060681	  0.238498	  0.501199	
6.02117	  0.063170	  0.251334	  0.504837	
6.05444	  0.065535	  0.264814	  0.504933	
6.0877	  0.067389	  0.277409	  0.502218	
6.12097	  0.068407	  0.287814	  0.498005	
6.15423	  0.068445	  0.295484	  0.493347	
6.1875	  0.067563	  0.300530	  0.488909	
6.22077	  0.065975	  0.303149	  0.485432	
6.25403	  0.063959	  0.303267	  0.484043	
6.2873	  0.061798	  0.300698	  0.485935	
6.32056	  0.059719	  0.295441	  0.491735	
6.35383	  0.057853	  0.287619	  0.501041	
6.3871	  0.056230	  0.277209	  0.512195	
6.42036	  0.054845	  0.264078	  0.522187	
6.45363	  0.053726	  0.248457	  0.527042	
6.4869	  0.052950	  0.231355	  0.523083	
6.52016	  0.052580	  0.214386	  0.508699	
6.55343	  0.052606	  0.199202	  0.485363	
6.58669	  0.052953	  0.187116	  0.457081	
6.61996	  0.053584	  0.179207	  0.428707	
6.65323	  0.054575	  0.176580	  0.404427	
6.68649	  0.056087	  0.180269	  0.387251	
6.71976	  0.058226	  0.190691	  0.379183	
6.75302	  0.060899	  0.207048	  0.381199	
6.78629	  0.063795	  0.227230	  0.392674	
6.81956	  0.066499	  0.248338	  0.410889	
6.85282	  0.068630	  0.267437	  0.431481	
6.88609	  0.069879	  0.281942	  0.449935	
6.91935	  0.069930	  0.289587	  0.463206	
6.95262	  0.068455	  0.288533	  0.470434	
6.98589	  0.065296	  0.278132	  0.472490	
7.01915	  0.060755	  0.259940	  0.470953	
7.05242	  0.055705	  0.237949	  0.467307	
7.08569	  0.051343	  0.217417	  0.462726	
7.11895	  0.048685	  0.202852	  0.458318	
7.15222	  0.048136	  0.196361	  0.455431	
7.18548	  0.049410	  0.197288	  0.455587	
7.21875	  0.051799	  0.203224	  0.459879	
7.25202	  0.054597	  0.211728	  0.468144	
7.28528	  0.057377	  0.221700	  0.478551	
7.31855	  0.060022	  0.233587	  0.488104	
7.35181	  0.062574	  0.248402	  0.493847	
7.38508	  0.065084	  0.266364	  0.493929	
7.41835	  0.067572	  0.286182	  0.487922	
7.45161	  0.070042	  0.305351	  0.476522	
7.48488	  0.072464	  0.321096	  0.461223	
7.51815	  0.074703	  0.331305	  0.444099	
7.55141	  0.076461	  0.334936	  0.427410	
7.58468	  0.077303	  0.331810	  0.412994	
7.61794	  0.076793	  0.322134	  0.401920	
7.65121	  0.074687	  0.306303	  0.394710	
7.68448	  0.071092	  0.285254	  0.391801	
7.71774	  0.066498	  0.260968	  0.393609	
7.75101	  0.061626	  0.236465	  0.400075	
7.78427	  0.057189	  0.215042	  0.410230	
7.81754	  0.053697	  0.199231	  0.422273	
7.85081	  0.051396	  0.190240	  0.434088	
7.88407	  0.050313	  0.188205	  0.443799	
7.91734	  0.050364	  0.192850	  0.450235	
7.9506	  0.051435	  0.203774	  0.453322	
7.98387	  0.053389	  0.220017	  0.454234	
8.01714	  0.056018	  0.239458	  0.454915	
8.0504	  0.059011	  0.258977	  0.456947	
8.08367	  0.062016	  0.275643	  0.460431	
8.11694	  0.064746	  0.288024	  0.463758	
8.1502	  0.067004	  0.296362	  0.464579	
8.18347	  0.068584	  0.301453	  0.461358	
8.21673	  0.069193	  0.303421	  0.454496	
8.25	  0.068543	  0.301674	  0.446343	
8.28327	  0.066592	  0.295904	  0.440155	
8.31653	  0.063696	  0.286871	  0.438664	
8.3498	  0.060497	  0.276107	  0.443055	
8.38306	  0.057638	  0.265040	  0.452785	
8.41633	  0.055513	  0.254516	  0.466128	
8.4496	  0.054222	  0.245014	  0.480956	
8.48286	  0.053682	  0.237068	  0.495376	
8.51613	  0.053786	  0.231354	  0.508122	
8.5494	  0.054493	  0.228476	  0.518777	
8.58266	  0.055806	  0.228659	  0.527653	
8.61593	  0.057662	  0.231564	  0.535106	
8.64919	  0.059827	  0.236268	  0.540590	
8.68246	  0.061913	  0.241518	  0.542471	
8.71573	  0.063535	  0.246232	  0.539202	
8.74899	  0.064507	  0.249970	  0.530999	
8.78226	  0.064925	  0.253006	  0.520296	
8.81552	  0.065077	  0.255896	  0.510394	
8.84879	  0.065263	  0.258954	  0.503550	
8.88206	  0.065661	  0.262148	  0.500171	
8.91532	  0.066294	  0.265497	  0.499455	
8.94859	  0.067078	  0.269458	  0.500479	
8.98185	  0.067897	  0.274736	  0.502792	
9.01512	  0.068631	  0.281565	  0.506378	
9.04839	  0.069156	  0.289071	  0.511417	
9.08165	  0.069317	  0.295349	  0.518114	
9.11492	  0.068947	  0.298255	  0.526582	
9.14819	  0.067923	  0.296361	  0.536708	
9.18145	  0.066263	  0.289500	  0.548019	
9.21472	  0.064172	  0.278669	  0.559534	
9.24798	  0.062016	  0.265578	  0.569622	
9.28125	  0.060217	  0.252208	  0.576144	
9.31452	  0.059123	  0.240506	  0.577133	
9.34778	  0.058879	  0.232077	  0.571772	
9.38105	  0.059358	  0.227753	  0.560951	
9.41431	  0.060196	  0.227205	  0.546973	
9.44758	  0.060924	  0.228961	  0.532718	
9.48085	  0.061147	  0.231008	  0.520829	
9.51411	  0.060676	  0.231735	  0.513050	
9.54738	  0.059555	  0.230558	  0.509619	
9.58065	  0.057964	  0.227790	  0.508832	
9.61391	  0.056087	  0.223967	  0.507278	
9.64718	  0.054024	  0.219287	  0.500985	
9.68044	  0.051799	  0.213554	  0.487028	
9.71371	  0.049387	  0.206391	  0.464584	
9.74698	  0.046702	  0.197278	  0.434727	
9.78024	  0.043578	  0.185441	  0.399272	
9.81351	  0.039835	  0.170029	  0.359750	
9.84677	  0.035427	  0.150705	  0.317218	
9.88004	  0.030545	  0.128247	  0.272714	
9.91331	  0.025581	  0.104556	  0.227658	
9.94657	  0.020977	  0.081996	  0.183873	
9.97984	  0.017094	  0.062561	  0.143341	
10.0131	  0.014140	  0.047398	  0.107918	
10.0464	  0.012157	  0.036791	  0.079025	
10.0796	  0.011036	  0.030366	  0.057326	
10.1129	  0.010554	  0.027309	  0.042548	
10.1462	  0.010442	  0.026585	  0.033579	
10.1794	  0.010480	  0.027214	  0.028864	
10.2127	  0.010553	  0.028482	  0.026886	
10.246	  0.010648	  0.029967	  0.026483	
10.2792	  0.010792	  0.031380	  0.026920	
10.3125	  0.010999	  0.032436	  0.027773	
10.3458	  0.011254	  0.032919	  0.028793	
10.379	  0.011529	  0.032862	  0.029824	
10.4123	  0.011806	  0.032635	  0.030782	
10.4456	  0.012078	  0.032815	  0.031653	
10.4788	  0.012333	  0.033912	  0.032463	
10.5121	  0.012555	  0.036126	  0.033246	
10.5454	  0.012730	  0.039301	  0.034011	
10.5786	  0.012860	  0.043041	  0.034741	
